<?xml version="1.0" encoding="utf-8"?>
<!-- Generator: Adobe Illustrator 25.0.0, SVG Export Plug-In . SVG Version: 6.00 Build 0)  -->
<svg version="1.1" id="Layer_1" xmlns="http://www.w3.org/2000/svg" xmlns:xlink="http://www.w3.org/1999/xlink" x="0px" y="0px"
	 viewBox="0 0 1920 1080" style="enable-background:new 0 0 1920 1080;" xml:space="preserve">
<style type="text/css">
	.st0{fill:none;}
	.st1{fill:url(#New_Pattern);}
</style>
<pattern  width="884" height="807" patternUnits="userSpaceOnUse" id="New_Pattern" viewBox="365.8 -807 884 807" style="overflow:visible;">
	<g>
		<rect x="365.8" y="-807" class="st0" width="884" height="807"/>
		
			<image style="overflow:visible;" width="437" height="269" xlink:href="../../../../../../Vector.png"  transform="matrix(1 0 0 1 884 -269)">
		</image>
		
			<image style="overflow:visible;" width="437" height="269" xlink:href="../../../../../../Vector.png"  transform="matrix(1 0 0 1 442 -269)">
		</image>
		
			<image style="overflow:visible;" width="437" height="269" xlink:href="../../../../../../Vector.png"  transform="matrix(1 0 0 1 0 -269)">
		</image>
		
			<image style="overflow:visible;" width="437" height="269" xlink:href="../../../../../../Vector.png"  transform="matrix(1 0 0 1 1031.3334 -538)">
		</image>
		
			<image style="overflow:visible;" width="437" height="269" xlink:href="../../../../../../Vector.png"  transform="matrix(1 0 0 1 589.3333 -538)">
		</image>
		
			<image style="overflow:visible;" width="437" height="269" xlink:href="../../../../../../Vector.png"  transform="matrix(1 0 0 1 147.3333 -538)">
		</image>
		
			<image style="overflow:visible;" width="437" height="269" xlink:href="../../../../../../Vector.png"  transform="matrix(1 0 0 1 1178.6666 -807)">
		</image>
		
			<image style="overflow:visible;" width="437" height="269" xlink:href="../../../../../../Vector.png"  transform="matrix(1 0 0 1 736.6667 -807)">
		</image>
		
			<image style="overflow:visible;" width="437" height="269" xlink:href="../../../../../../Vector.png"  transform="matrix(1 0 0 1 294.6667 -807)">
		</image>
	</g>
</pattern>
<rect class="st1" width="1920" height="1080"/>
</svg>
